PathFileType	4	(X/Y/Z)	C:/Users/opensim2020/Desktop/walking_exp_matlab/subject02_walking04_straight_01.trc																																																																																																																												
DataRate	CameraRate	NumFrames	NumMarkers	Units	OrigDataRate	OrigDataStartFrame	OrigNumFrames																																																																																																																								
100	100	4	42	mm	100	915	302																																																																																																																								
Frame#	Time	LFHD			RFHD			LBHD			RBHD			C7			T10			CLAV			STRN			RBAK			LSHO			LUPA			LELB			LFRM			LWRA			LWRB			LFIN			RSHO			RUPA			RELB			RFRM			RWRA			RWRB			RFIN			LASI			RASI			LPSI			RPSI			LTHI			LKNE			LTIB			LANK			LHEE			LTOE			RTHI			RKNE			RTIB			RANK			RHEE			RTOE			*39			*40			*41		
		X1	Y1	Z1	X2	Y2	Z2	X3	Y3	Z3	X4	Y4	Z4	X5	Y5	Z5	X6	Y6	Z6	X7	Y7	Z7	X8	Y8	Z8	X9	Y9	Z9	X10	Y10	Z10	X11	Y11	Z11	X12	Y12	Z12	X13	Y13	Z13	X14	Y14	Z14	X15	Y15	Z15	X16	Y16	Z16	X17	Y17	Z17	X18	Y18	Z18	X19	Y19	Z19	X20	Y20	Z20	X21	Y21	Z21	X22	Y22	Z22	X23	Y23	Z23	X24	Y24	Z24	X25	Y25	Z25	X26	Y26	Z26	X27	Y27	Z27	X28	Y28	Z28	X29	Y29	Z29	X30	Y30	Z30	X31	Y31	Z31	X32	Y32	Z32	X33	Y33	Z33	X34	Y34	Z34	X35	Y35	Z35	X36	Y36	Z36	X37	Y37	Z37	X38	Y38	Z38	X39	Y39	Z39	X40	Y40	Z40	X41	Y41	Z41	X42	Y42	Z42
																																																																																																																															
189	1.88	56.7762	1752.90234	-1052.32886	55.03017	1730.64282	-909.28442	-64.80312	1664.79224	-1066.56995	-78.84713	1640.37427	-925.9704	-112.50517	1529.44788	-983.19739	-171.23058	1256.81189	-963.49298	23.05167	1457.29431	-1012.35767	72.6101	1285.07153	-1003.05328	-161.4613	1361.81702	-901.83478	-66.86436	1494.5647	-1171.68323	-121.77347	1299.66638	-1245.04297	-151.48035	1161.86096	-1253.25159	-167.64313	1030.40442	-1267.38525	-130.16154	897.13812	-1245.06763	-179.64764	908.08154	-1270.75037	-172.16629	841.99902	-1277.41138	-3.06459	1503.26025	-812.4162	14.78789	1317.23816	-715.60394	61.82659	1175.34912	-700.12354	127.66651	1072.47766	-696.07184	207.60056	969.46851	-731.9718	172.07988	949.52332	-692.08484	228.65465	906.69891	-698.6557	46.87064	995.43243	-1124.01587	66.08086	975.36627	-867.02441	-156.30705	1035.71997	-1025.04785	-152.1653	1034.66602	-910.35999	29.70131	692.84314	-1200.2793	65.12069	495.67621	-1178.88745	52.87062	301.43182	-1178.71167	115.68394	83.17596	-1172.10522	105.21785	50.34414	-1113.76587	263.64978	75.20998	-1225.09851	-29.26817	669.23859	-813.33356	-59.31944	460.92081	-858.62939	-123.23626	283.10693	-852.6557	-167.96481	94.80317	-894.71948	-212.22615	42.49746	-948.07422	-18.82941	35.98434	-894.05389	-54.03988	1804.60779	-963.69867	2845.68823	1033.96191	-3357.26758	NaN	NaN	NaN
190	1.89	66.31788	1751.73035	-1053.84656	64.18471	1729.48157	-910.9599	-55.34601	1663.63818	-1067.89795	-68.92395	1639.34131	-926.95917	-103.19219	1528.48315	-984.39697	-162.36627	1255.9165	-965.18781	32.28439	1456.09814	-1013.41095	81.44038	1283.76257	-1003.79169	-152.49911	1360.92053	-903.12311	-57.67529	1493.15613	-1172.67407	-114.03065	1298.85742	-1245.71912	-145.07837	1161.38245	-1253.45056	-163.1539	1030.24658	-1267.84924	-127.03236	896.40509	-1245.99939	-176.56894	908.03113	-1271.26074	-170.13411	841.85889	-1278.01221	6.0837	1502.21716	-813.48584	25.02801	1316.61841	-716.56744	72.49042	1174.84204	-700.88904	139.26178	1072.24927	-697.18127	220.50992	970.51733	-733.2796	184.89641	950.03735	-693.54395	242.02632	907.90674	-700.26465	56.45409	994.09143	-1124.59387	74.2522	974.50726	-867.48016	-147.18179	1034.67688	-1026.78247	-144.09671	1033.75732	-912.13324	38.3273	691.31818	-1200.90662	75.81585	494.52881	-1179.54272	71.01634	300.20428	-1182.07617	142.14127	84.09002	-1177.07532	131.20656	50.25247	-1119.51855	292.00739	81.14653	-1225.90479	-23.30185	668.59296	-813.89966	-54.87803	460.31833	-858.74762	-120.88651	283.33572	-852.86096	-167.37993	95.38338	-894.95483	-211.92897	43.32156	-948.52142	-18.718	35.94522	-893.90375	-44.44594	1803.71985	-965.32501	2845.7356	1033.90674	-3357.375	NaN	NaN	NaN
191	1.9	75.94883	1750.36707	-1055.45679	73.91823	1728.52856	-912.27118	-45.84365	1662.50659	-1069.42603	-60.26502	1638.62659	-929.14093	-93.9069	1527.44482	-985.70428	-153.44269	1254.91492	-967.00903	41.56382	1454.86194	-1014.62354	90.68228	1282.57727	-1004.79382	-143.41962	1359.90967	-904.53729	-48.23606	1492.1781	-1174.1394	-106.09181	1297.9624	-1246.48608	-138.3429	1160.98035	-1253.86279	-157.97978	1030.05676	-1268.47083	-123.54294	895.67297	-1247.01538	-173.17213	907.97198	-1271.74878	-167.67499	841.72046	-1278.68835	15.04215	1501.03784	-814.75562	34.53431	1315.70874	-717.71204	82.92993	1174.17969	-701.79852	150.78383	1072.37854	-698.42249	232.65157	971.21893	-734.84241	197.44441	950.34717	-695.12616	255.06538	908.81531	-701.89355	66.07251	992.68695	-1125.19519	82.01729	973.43292	-867.80298	-137.92154	1033.56946	-1028.6571	-135.78632	1032.81335	-914.08746	47.14712	689.82281	-1201.69507	86.6916	493.43143	-1180.43835	88.72291	299.37643	-1185.44397	167.53627	85.58345	-1181.66663	155.97867	50.77415	-1124.6969	319.12784	86.97765	-1225.90527	-17.63983	668.07904	-814.19849	-50.87626	459.83636	-859.03369	-118.46712	283.57571	-853.15356	-166.94489	95.90224	-895.11853	-211.84709	44.26593	-948.80585	-18.57919	35.95304	-893.65741	-34.70186	1802.57825	-966.80121	2845.06226	1033.70117	-3360.08105	NaN	NaN	NaN
192	1.91	85.59813	1749.05286	-1057.13342	83.42028	1727.21777	-914.15118	-36.3249	1661.29614	-1070.896	-50.18208	1637.4989	-930.04309	-84.53765	1526.37671	-987.14423	-144.40201	1253.83057	-968.85767	50.89621	1453.60168	-1015.88922	99.77794	1281.3186	-1005.86096	-134.43642	1358.82996	-906.18109	-38.97904	1490.67749	-1175.30762	-98.00491	1297.04565	-1247.34009	-131.37492	1160.38379	-1254.40649	-152.62997	1029.70947	-1268.69958	-119.65611	894.93225	-1248.14111	-169.34496	907.784	-1272.43201	-164.74118	841.57446	-1279.47363	24.14546	1500.01575	-816.10468	43.88898	1314.63684	-719.07806	93.32421	1173.39587	-702.82117	161.90024	1072.11523	-699.69971	244.30229	971.7616	-736.66907	209.52341	950.48206	-696.73718	267.72375	909.62195	-703.72345	75.87787	991.27509	-1125.7915	90.53198	972.50507	-868.35437	-128.56526	1032.44531	-1030.63257	-127.42785	1031.85742	-916.06641	56.29425	688.41364	-1202.62305	97.85767	492.38779	-1181.39612	105.92088	298.7583	-1188.74768	191.5748	87.46947	-1185.8844	179.67267	51.87263	-1129.6261	344.76205	92.63197	-1225.54285	-11.54973	667.42926	-814.86182	-46.37014	459.46091	-859.60455	-116.09065	283.90738	-853.39276	-166.37344	96.66298	-895.35126	-211.57599	45.08893	-949.1225	-18.501	35.82036	-893.58337	-24.92607	1801.56738	-968.64142	2845.7478	1033.79968	-3357.46802	NaN	NaN	NaN
